<svg width="25" height="19" viewBox="0 0 25 19" fill="none" xmlns="http://www.w3.org/2000/svg">
<path d="M4.91895 9.04907H11.0596C11.5994 9.04907 12.0923 9.25317 12.4658 9.5879C12.8393 9.25312 13.3322 9.04907 13.8721 9.04907H20.0127V1.50853C20.0127 1.12204 19.7035 0.800432 19.317 0.799072C19.3112 0.799072 19.5569 0.799072 5.62207 0.799072C5.22195 0.799072 4.91895 1.1271 4.91895 1.50853V9.04907Z" fill="#666666"/>
<path d="M13.1689 11.1584V12.7991H20.0127C20.0127 11.7605 20.0127 11.5472 20.0127 10.4553H13.8721C13.4844 10.4553 13.1689 10.7707 13.1689 11.1584Z" fill="#666666"/>
<path d="M22.193 5.67518C21.7596 5.68868 21.4189 6.05224 21.4189 6.48583C21.4189 6.59711 21.4189 13.9016 21.4189 13.5022C21.4189 13.8905 21.1041 14.2053 20.7158 14.2053C20.1537 14.2053 3.68205 14.2053 4.21582 14.2053C3.82751 14.2053 3.5127 13.8905 3.5127 13.5022C3.5127 13.2428 3.5127 6.41819 3.5127 6.48583C3.5127 6.05224 3.17205 5.68868 2.73865 5.67518C1.48943 5.63627 0.46582 6.63564 0.46582 7.87722V15.096C0.46582 16.261 1.41021 17.2053 2.5752 17.2053H3.5127V17.9823C3.5127 18.361 3.80365 18.6867 4.18184 18.7046C4.58562 18.7236 4.91895 18.4018 4.91895 18.0022V17.2053H20.0127V17.9823C20.0127 18.361 20.3036 18.6867 20.6818 18.7046C21.0856 18.7236 21.4189 18.4018 21.4189 18.0022V17.2053H22.3564C23.5214 17.2053 24.4658 16.261 24.4658 15.096V7.91683C24.4658 6.61882 23.4342 5.6365 22.193 5.67518Z" fill="#666666"/>
<path d="M11.7627 11.1584C11.7627 10.7707 11.4473 10.4553 11.0596 10.4553H4.91895V12.7991H11.7627V11.1584Z" fill="#666666"/>
</svg>
