<svg width="17" height="17" viewBox="0 0 17 17" fill="none" xmlns="http://www.w3.org/2000/svg">
<g clip-path="url(#clip0_27682_441)">
<path d="M10.623 8.57255L16.017 11.9826V5.01855L10.623 8.57255Z" fill="#7F7F7F"/>
<path d="M0.0175781 5.01855V11.9826L5.41158 8.57255L0.0175781 5.01855Z" fill="#7F7F7F"/>
<path d="M15.0179 2.99048H1.01785C0.518852 2.99048 0.122852 3.36248 0.0478516 3.84148L8.01785 9.09248L15.9879 3.84148C15.9129 3.36248 15.5169 2.99048 15.0179 2.99048Z" fill="#7F7F7F"/>
<path d="M9.7078 9.17654L8.2928 10.1085C8.20881 10.1635 8.1138 10.1905 8.0178 10.1905C7.9218 10.1905 7.8268 10.1635 7.7428 10.1085L6.3278 9.17554L0.0498047 13.1465C0.126805 13.6215 0.520805 13.9905 1.0178 13.9905H15.0178C15.5148 13.9905 15.9088 13.6215 15.9858 13.1465L9.7078 9.17654Z" fill="#7F7F7F"/>
</g>
<defs>
<clipPath id="clip0_27682_441">
<rect width="16" height="16" fill="white" transform="translate(0.0175781 0.490479)"/>
</clipPath>
</defs>
</svg>
